<?xml version="1.0" encoding="iso-8859-1"?>
<!-- Generator: Adobe Illustrator 19.0.0, SVG Export Plug-In . SVG Version: 6.00 Build 0)  -->
<svg version="1.1" id="Capa_1" xmlns="http://www.w3.org/2000/svg" xmlns:xlink="http://www.w3.org/1999/xlink" x="0px" y="0px"
	 viewBox="0 0 480 480" style="enable-background:new 0 0 480 480;" xml:space="preserve">
<g>
	<g>
		<path d="M434.872,8.049H45.128C20.215,8.075,0.026,28.264,0,53.177v85.744c0.026,24.913,20.215,45.102,45.128,45.128h389.744
			c24.913-0.026,45.102-20.215,45.128-45.128V53.177C479.974,28.264,459.785,8.075,434.872,8.049z M464,138.921
			c-0.018,16.08-13.048,29.11-29.128,29.128H45.128c-16.08-0.018-29.11-13.048-29.128-29.128V53.177
			c0.018-16.08,13.048-29.11,29.128-29.128h389.744c16.08,0.018,29.11,13.048,29.128,29.128V138.921z"/>
	</g>
</g>
<g>
	<g>
		<path d="M87.28,198.489c-4.418,0-8,3.582-8,8v34.296c0.032,11.784-4.652,23.091-13.008,31.4c-10.63,10.152-27.362,10.152-37.992,0
			c-5.697-5.725-5.674-14.984,0.05-20.681c2.662-2.649,6.242-4.173,9.998-4.255c3.992-0.056,7.839,1.498,10.672,4.312l0.656,0.648
			c3.192,3.055,8.256,2.943,11.311-0.25c2.984-3.119,2.956-8.042-0.063-11.126l-0.624-0.616c-5.71-5.761-13.489-8.993-21.6-8.976H38
			c-16.914,0.35-30.342,14.345-29.992,31.259c0.164,7.9,3.374,15.432,8.96,21.021c16.739,16.737,43.877,16.737,60.616,0
			c11.367-11.302,17.74-26.682,17.696-42.712v-34.32C95.28,202.071,91.698,198.489,87.28,198.489z"/>
	</g>
</g>
<g>
	<g>
		<path d="M144,208.049c-4.418,0-8,3.582-8,8v26.744c0.075,26.87-10.604,52.652-29.656,71.6c-3.178,3.07-3.266,8.134-0.196,11.312
			c3.07,3.178,8.134,3.266,11.312,0.196c0.067-0.064,0.132-0.13,0.196-0.196c22.063-21.94,34.431-51.797,34.344-82.912v-26.744
			C152,211.631,148.418,208.049,144,208.049z"/>
	</g>
</g>
<g>
	<g>
		<path d="M200,248.049c-4.418,0-8,3.582-8,8v80c0,4.418,3.582,8,8,8s8-3.582,8-8v-80C208,251.631,204.418,248.049,200,248.049z"/>
	</g>
</g>
<g>
	<g>
		<path d="M200,200.049c-4.418,0-8,3.582-8,8v16c0,4.418,3.582,8,8,8s8-3.582,8-8v-16C208,203.631,204.418,200.049,200,200.049z"/>
	</g>
</g>
<g>
	<g>
		<path d="M462.943,240.177c-5.575-5.556-13.074-8.753-20.943-8.928c-8.319-0.153-16.346,3.071-22.248,8.936l-0.656,0.648
			c-3.193,3.054-3.304,8.118-0.25,11.311c3.054,3.193,8.118,3.305,11.311,0.25c0.063-0.061,0.126-0.122,0.187-0.185l0.688-0.68
			c2.832-2.792,6.664-4.333,10.64-4.28c8.075,0.158,14.493,6.833,14.335,14.908c-0.074,3.781-1.61,7.387-4.286,10.06
			c-10.63,10.152-27.362,10.152-37.992,0c-8.356-8.309-13.04-19.616-13.008-31.4v-34.328c0-4.418-3.582-8-8-8s-8,3.582-8,8v34.296
			c-0.048,16.027,6.319,31.407,17.68,42.712c16.739,16.737,43.877,16.737,60.616,0C474.958,271.514,474.926,252.119,462.943,240.177
			z"/>
	</g>
</g>
<g>
	<g>
		<path d="M373.656,314.393c-19.052-18.948-29.731-44.73-29.656-71.6v-26.744c0-4.418-3.582-8-8-8s-8,3.582-8,8v26.744
			c-0.087,31.115,12.281,60.972,34.344,82.912c3.178,3.07,8.242,2.982,11.312-0.196
			C376.651,322.409,376.651,317.493,373.656,314.393z"/>
	</g>
</g>
<g>
	<g>
		<path d="M280,248.049c-4.418,0-8,3.582-8,8v80c0,4.418,3.582,8,8,8s8-3.582,8-8v-80C288,251.631,284.418,248.049,280,248.049z"/>
	</g>
</g>
<g>
	<g>
		<path d="M280,200.049c-4.418,0-8,3.582-8,8v16c0,4.418,3.582,8,8,8s8-3.582,8-8v-16C288,203.631,284.418,200.049,280,200.049z"/>
	</g>
</g>
<g>
	<g>
		<path d="M432,136.049H48c-4.418,0-8,3.582-8,8s3.582,8,8,8h384c4.418,0,8-3.582,8-8S436.418,136.049,432,136.049z"/>
	</g>
</g>
<g>
	<g>
		<path d="M432,104.049H48c-4.418,0-8,3.582-8,8s3.582,8,8,8h384c4.418,0,8-3.582,8-8S436.418,104.049,432,104.049z"/>
	</g>
</g>
<g>
	<g>
		<path d="M424,40.049h-32c-13.255,0-24,10.745-24,24s10.745,24,24,24h32c13.255,0,24-10.745,24-24S437.255,40.049,424,40.049z
			 M424,72.049h-32c-4.418,0-8-3.582-8-8s3.582-8,8-8h32c4.418,0,8,3.582,8,8S428.418,72.049,424,72.049z"/>
	</g>
</g>
<g>
	<g>
		<path d="M336,56.049h-16c-4.418,0-8,3.582-8,8s3.582,8,8,8h16c4.418,0,8-3.582,8-8S340.418,56.049,336,56.049z"/>
	</g>
</g>
<g>
	<g>
		<path d="M288,56.049h-16c-4.418,0-8,3.582-8,8s3.582,8,8,8h16c4.418,0,8-3.582,8-8S292.418,56.049,288,56.049z"/>
	</g>
</g>
<g>
	<g>
		<path d="M427.312,416.049l10.344-10.344c3.123-3.124,3.123-8.188,0-11.312c-3.124-3.123-8.188-3.123-11.312,0l-13.656,13.656
			h-6.16c-2.42-6.776-7.753-12.108-14.528-14.528v-6.16l13.656-13.656c3.07-3.178,2.982-8.242-0.196-11.312
			c-3.1-2.995-8.016-2.995-11.116,0L384,372.737l-10.344-10.344c-3.178-3.07-8.242-2.982-11.312,0.196
			c-2.995,3.1-2.995,8.016,0,11.116L376,387.361v6.16c-6.775,2.42-12.108,7.753-14.528,14.528h-6.16l-13.656-13.656
			c-3.178-3.07-8.242-2.982-11.312,0.196c-2.995,3.1-2.995,8.016,0,11.116l10.344,10.344l-10.344,10.344
			c-3.178,3.07-3.266,8.134-0.196,11.312c3.07,3.178,8.134,3.266,11.312,0.196c0.066-0.064,0.132-0.13,0.196-0.196l13.656-13.656
			h6.16c2.42,6.775,7.753,12.108,14.528,14.528v6.16l-13.656,13.656c-3.07,3.178-2.982,8.242,0.196,11.312
			c3.1,2.995,8.016,2.995,11.116,0L384,459.361l10.344,10.344c3.178,3.07,8.242,2.982,11.312-0.196c2.995-3.1,2.995-8.016,0-11.116
			L392,444.737v-6.16c6.776-2.42,12.108-7.753,14.528-14.528h6.16l13.656,13.656c3.178,3.07,8.242,2.982,11.312-0.196
			c2.995-3.1,2.995-8.016,0-11.116L427.312,416.049z M384,424.049c-4.418,0-8-3.582-8-8s3.582-8,8-8s8,3.582,8,8
			S388.418,424.049,384,424.049z"/>
	</g>
</g>
<g>
	<g>
		<path d="M197.656,410.393l-10.344-10.344l10.344-10.344c3.07-3.178,2.982-8.242-0.196-11.312c-3.1-2.994-8.015-2.994-11.116,0
			l-13.656,13.656h-6.16c-2.42-6.776-7.753-12.108-14.528-14.528v-6.16l13.656-13.656c3.07-3.178,2.982-8.242-0.196-11.312
			c-3.1-2.994-8.015-2.994-11.116,0L144,356.737l-10.344-10.344c-3.178-3.07-8.242-2.982-11.312,0.196
			c-2.994,3.1-2.994,8.015,0,11.116L136,371.361v6.16c-6.775,2.42-12.108,7.753-14.528,14.528h-6.16l-13.656-13.656
			c-3.178-3.07-8.242-2.982-11.312,0.196c-2.995,3.1-2.995,8.016,0,11.116l10.344,10.344l-10.344,10.344
			c-3.178,3.07-3.266,8.134-0.196,11.312c3.07,3.178,8.134,3.266,11.312,0.196c0.067-0.064,0.132-0.13,0.196-0.196l13.656-13.656
			h6.16c2.42,6.775,7.753,12.108,14.528,14.528v6.16l-13.656,13.656c-3.07,3.178-2.982,8.242,0.196,11.312
			c3.1,2.994,8.015,2.994,11.116,0L144,443.361l10.344,10.344c3.178,3.069,8.242,2.982,11.312-0.196c2.994-3.1,2.994-8.015,0-11.116
			L152,428.737v-6.16c6.776-2.42,12.108-7.753,14.528-14.528h6.16l13.656,13.656c3.178,3.069,8.243,2.982,11.312-0.196
			C200.65,418.408,200.65,413.493,197.656,410.393z M144,408.049c-4.418,0-8-3.582-8-8s3.582-8,8-8s8,3.582,8,8
			S148.418,408.049,144,408.049z"/>
	</g>
</g>
<g>
</g>
<g>
</g>
<g>
</g>
<g>
</g>
<g>
</g>
<g>
</g>
<g>
</g>
<g>
</g>
<g>
</g>
<g>
</g>
<g>
</g>
<g>
</g>
<g>
</g>
<g>
</g>
<g>
</g>
</svg>
