<?xml version="1.0"?>
<svg xmlns="http://www.w3.org/2000/svg" width="512" height="512" viewBox="0 0 128 128"><g><path d="M64,25.438A38.563,38.563,0,1,0,102.562,64,38.6,38.6,0,0,0,64,25.438Zm0,73.625A35.063,35.063,0,1,1,99.063,64,35.1,35.1,0,0,1,64,99.063Z"/><path d="M52.993,64.746a5.644,5.644,0,1,0,5.644,5.644A5.65,5.65,0,0,0,52.993,64.746Zm0,7.787a2.144,2.144,0,1,1,2.144-2.143A2.145,2.145,0,0,1,52.993,72.533Z"/><path d="M84.224,44.419c-1.694-2.934-4.809-4.768-8.771-5.165A19.555,19.555,0,0,0,63.9,41.985a20.326,20.326,0,0,0-7.193,6.89,14.384,14.384,0,0,0-11.825,7.273A14.182,14.182,0,0,0,43.4,60.121a3.971,3.971,0,0,1-2.189,2.6,8.933,8.933,0,0,0-3.794,3.607c-2.963,5.368.5,12.981,7.725,16.969A18.511,18.511,0,0,0,54,85.689c4.2,0,7.855-1.691,9.622-4.891a8.62,8.62,0,0,0,1.042-3.53,3.927,3.927,0,0,1,1.428-2.846,14.4,14.4,0,0,0,1.222-1.059l2.888,5a4.991,4.991,0,0,0,6.811,1.826l13.43-7.754a4.987,4.987,0,0,0,1.825-6.812l-7.33-12.7A10.533,10.533,0,0,0,84.224,44.419ZM63.959,71.643A7.42,7.42,0,0,0,61.17,77a5.141,5.141,0,0,1-.618,2.107c-2,3.617-8.279,4.135-13.72,1.131s-8.35-8.6-6.352-12.214a5.368,5.368,0,0,1,2.325-2.183,7.442,7.442,0,0,0,4.018-5,10.666,10.666,0,0,1,1.121-2.993,10.884,10.884,0,0,1,9.5-5.52l.048,0a1.758,1.758,0,0,0,.261.015,10.556,10.556,0,0,1,4.52,1.138,10.785,10.785,0,0,1,3.942,15.8l-.023.03A10.63,10.63,0,0,1,63.959,71.643Zm25.272-4.269a1.488,1.488,0,0,1-.543,2.031l-13.43,7.753a1.485,1.485,0,0,1-2.03-.544L69.641,70.4c.078-.131.167-.255.242-.389h0a14.294,14.294,0,0,0-6.018-19.64,13.931,13.931,0,0,0-3.143-1.137,17.4,17.4,0,0,1,4.932-4.218,16.04,16.04,0,0,1,9.45-2.279c2.811.281,4.973,1.5,6.088,3.432a7.341,7.341,0,0,1,.19,6.327,1.752,1.752,0,0,0,.121,1.493Z"/><path d="M117.094,26.449a10.919,10.919,0,0,0-10.907,10.906v7.438a6.919,6.919,0,0,0,5.157,6.682V95.807a5.75,5.75,0,1,0,11.5,0V51.475A6.918,6.918,0,0,0,128,44.793V37.355A10.919,10.919,0,0,0,117.094,26.449ZM124.5,44.793a3.41,3.41,0,0,1-3.406,3.406,1.75,1.75,0,0,0-1.75,1.75V95.807a2.25,2.25,0,1,1-4.5,0V49.949a1.751,1.751,0,0,0-1.75-1.75,3.41,3.41,0,0,1-3.407-3.406V37.355a7.407,7.407,0,0,1,14.813,0Z"/><path d="M16.941,26.456h0a4.709,4.709,0,0,0-4.378,4.781v8.744a1.657,1.657,0,1,1-3.313,0V31.237a4.709,4.709,0,0,0-4.379-4.781,4.578,4.578,0,0,0-3.43,1.264A4.642,4.642,0,0,0,0,31.074V44.793a6.918,6.918,0,0,0,5.156,6.682V95.807a5.75,5.75,0,1,0,11.5,0V51.475a6.919,6.919,0,0,0,5.157-6.682V31.074a4.625,4.625,0,0,0-4.872-4.618Zm1.372,18.337A3.41,3.41,0,0,1,14.906,48.2a1.751,1.751,0,0,0-1.75,1.75V95.807a2.25,2.25,0,0,1-4.5,0V49.949a1.75,1.75,0,0,0-1.75-1.75A3.41,3.41,0,0,1,3.5,44.793V31.074a1.126,1.126,0,0,1,1.126-1.125l.062,0A1.248,1.248,0,0,1,5.75,31.237v8.744a5.157,5.157,0,1,0,10.313,0V31.237a1.248,1.248,0,0,1,1.061-1.286,1.125,1.125,0,0,1,1.189,1.123Z"/></g></svg>
