<?xml version="1.0" encoding="iso-8859-1"?>
<!-- Generator: Adobe Illustrator 19.0.0, SVG Export Plug-In . SVG Version: 6.00 Build 0)  -->
<svg version="1.1" id="Capa_1" xmlns="http://www.w3.org/2000/svg" xmlns:xlink="http://www.w3.org/1999/xlink" x="0px" y="0px"
	 viewBox="0 0 512 512" style="enable-background:new 0 0 512 512;" xml:space="preserve">
<g>
	<g>
		<path d="M504.495,420.099h-39.356V140.934h15.01c4.143,0,7.505-3.362,7.505-7.505V91.901h16.841c4.153,0,7.505-3.362,7.505-7.505
			V25.357c0-4.143-3.352-7.505-7.505-7.505h-270.51c-4.143,0-7.505,3.362-7.505,7.505c0,4.143,3.362,7.505,7.505,7.505H496.99
			v44.029c-13.587,0-336.195,0-353.735,0c-4.143,0-7.505,3.362-7.505,7.505s3.362,7.505,7.505,7.505c19.198,0,316.608,0,329.389,0
			v34.023c-22.045,0-415.379,0-433.288,0V91.901h73.879c4.153,0,7.505-3.362,7.505-7.505s-3.352-7.505-7.505-7.505
			c-10.415,0-78.472,0-88.889,0H15.01V32.862h188.956c4.143,0,7.505-3.362,7.505-7.505c0-4.143-3.362-7.505-7.505-7.505H7.505
			C3.352,17.852,0,21.214,0,25.357v59.039c0,4.143,3.352,7.505,7.505,7.505h16.841v41.528c0,4.143,3.362,7.505,7.505,7.505
			c1.317,0,11.224,0,15.01,0v279.165H7.505c-4.153,0-7.505,3.362-7.505,7.505v59.039c0,4.143,3.352,7.505,7.505,7.505h105.73
			c4.153,0,7.505-3.362,7.505-7.505c0-4.143-3.352-7.505-7.505-7.505H15.01v-44.029c55.431,0,91.024,0,188.956,0
			c4.143,0,7.505-3.362,7.505-7.505s-3.362-7.505-7.505-7.505h-65.544V205.466h235.156v214.633H233.985
			c-4.143,0-7.505,3.362-7.505,7.505s3.362,7.505,7.505,7.505c13.66,0,253.505,0,263.005,0v44.029H143.255
			c-4.143,0-7.505,3.362-7.505,7.505c0,4.143,3.362,7.505,7.505,7.505h361.24c4.153,0,7.505-3.362,7.505-7.505v-59.039
			C512,423.461,508.648,420.099,504.495,420.099z M450.129,420.099h-61.541V197.961c0-4.143-3.362-7.505-7.505-7.505H130.917
			c-4.143,0-7.505,3.362-7.505,7.505v222.138H61.871V140.934h388.258V420.099z"/>
	</g>
</g>
<g>
	<g>
		<path d="M325.226,299.089c-1.081-3.572-4.613-5.814-8.305-5.243c-3.692,0.56-6.404,3.753-6.374,7.475
			c0.08,10.437-2.462,16.531-4.843,19.943c-20.954-34.673-11.097-95.373-10.987-96.004c0.47-2.802-0.68-5.634-2.972-7.305
			c-2.292-1.681-5.334-1.921-7.865-0.62c-29.702,15.284-44.414,44.809-47.682,78.312c-1.537-8.287-2.422-18.754-2.422-24.186
			c-0.03-3.032-1.881-5.744-4.693-6.885c-2.812-1.131-6.034-0.46-8.155,1.701c-24.987,25.387-23.055,48.072-17.111,63.412
			c-4.563-2.862-9.026-7.785-11.328-16.251c-2.148-7.955-13.807-7.058-14.7,1.141c-0.09,0.851-2.211,21.044,4.043,43.489
			c25.43,90.965,150.402,70.498,152.761-8.696C335.122,331.67,329.869,314.359,325.226,299.089z M319.582,348.932
			c-1.932,65.069-113.335,81.775-126.034-8.155c8.796,6.384,18.843,8.125,25.107,7.805c2.662-0.14,5.053-1.681,6.274-4.043
			c1.231-2.372,1.111-5.203-0.31-7.455c-5.834-9.236-15.77-24.967-4.303-45.6c2.059,15.214,7.223,36.208,22.565,37.725
			c4.861,0.469,8.802-3.704,8.175-8.426c-0.07-0.59-6.404-53.215,26.958-81.604c-1.851,23.576-1.931,67.095,18.192,94.913
			c1.731,2.402,4.413,4.033,7.355,4.453c6.086,0.894,10.766-3.474,14.339-8.536C319.092,336.313,319.772,342.628,319.582,348.932z"
			/>
	</g>
</g>
<g>
	<g>
		<path d="M287.331,355.976c-5.122-10.301-6.509-24.271-6.164-35.764c0-9.773-11.589-13.225-17.071-6.304
			c-10.737,13.499-14.179,26.237-14.93,35.604c-3.007-1.824-5.492-2.942-8.616-2.942c-5.704,0-10.677,3.873-12.118,9.416
			c-3.584,14.007,1.697,26.592,11.287,33.903c11.729,10.821,35.805,10.178,45.911-3.542
			C292.473,377.055,292.436,366.271,287.331,355.976z M249.756,378.722c-1.727-1.672-8.32-5.955-7.375-15.73
			c5.714,3.908,6.922,7.655,12.548,7.655c5.907,0,10.432-5.273,9.516-11.107c-1.023-6.338-0.342-13.822,2.552-21.254
			c2.635,20.999,8.976,24.747,8.976,32.121C275.973,384.019,256.101,384.849,249.756,378.722z"/>
	</g>
</g>
<g>
</g>
<g>
</g>
<g>
</g>
<g>
</g>
<g>
</g>
<g>
</g>
<g>
</g>
<g>
</g>
<g>
</g>
<g>
</g>
<g>
</g>
<g>
</g>
<g>
</g>
<g>
</g>
<g>
</g>
</svg>
