<?xml version="1.0" encoding="iso-8859-1"?>
<!-- Generator: Adobe Illustrator 19.0.0, SVG Export Plug-In . SVG Version: 6.00 Build 0)  -->
<svg version="1.1" id="Capa_1" xmlns="http://www.w3.org/2000/svg" xmlns:xlink="http://www.w3.org/1999/xlink" x="0px" y="0px"
	 viewBox="0 0 512 512" style="enable-background:new 0 0 512 512;" xml:space="preserve">
<g>
	<g>
		<path d="M398.68,25.602c-9.286,0-17.173,6.066-19.936,14.439c-1.974,0.5-27.642,8.733-53.274,10.916
			c-4.128,0.351-7.188,3.981-6.837,8.108c0.351,4.127,3.985,7.192,8.108,6.837c15.552-1.323,31.81-4.49,50.938-9.935v135.278
			c-57.734-16.435-95.842-14.187-154.998,8.782l-42.874,16.647c-2.027,0.788-30.466,20.356-71.696,14.427
			c-52.326-7.476-93.109-52.651-93.109-107.493c0-84.1,91.867-135.991,163.708-93.599c0.351,0.207,0.717,0.385,1.097,0.532
			c34.539,12.467,69.296,30.186,110.446,34.88c4.114,0.478,7.832-2.485,8.302-6.601c0.47-4.116-2.485-7.833-6.601-8.302
			c-18.859-2.152-38.549-7.491-63.843-17.313l-42.314-16.43C166.979,5.799,145.49,0.001,123.606,0.001
			C55.449,0.001,0,55.45,0,123.607c0,50.843,30.86,94.608,74.829,113.565v145.419c0,23.64,17.361,43.297,40.002,46.905v26.183
			c0,31.055,25.264,56.318,56.318,56.318c31.054,0,56.318-25.264,56.318-56.318c0-19.843,0-133.502,0-150.863
			c0-22.782,18.535-41.317,41.318-41.317c22.782,0,41.317,18.535,41.317,41.317v47.826h-4.348
			c-18.373,0-33.321,14.948-33.321,33.321v25.209c-8.186,2.869-14.084,10.653-14.084,19.806c0,11.58,9.422,21.001,21.001,21.001
			h4.25v20.501c0,4.143,3.357,7.5,7.5,7.5s7.5-3.357,7.5-7.5v-20.501h38.002v20.501c0,4.143,3.357,7.5,7.5,7.5s7.5-3.357,7.5-7.5
			v-20.501h4.25c11.58,0,21.001-9.422,21.001-21.001c0-9.155-5.897-16.938-14.085-19.807v-24.309
			c0-18.87-15.352-34.222-34.222-34.222h-3.446v-47.826c0-31.055-25.264-56.318-56.318-56.318
			c-31.054,0-56.319,25.264-56.319,56.318c0,17.485,0,131.063,0,150.863c0,22.782-18.535,41.317-41.317,41.317
			s-41.317-18.535-41.317-41.317v-26.183c22.641-3.607,40.002-23.264,40.002-46.905c0-19.943,0-131.422,0-144.35
			c5.487-2.211,10.828-4.806,15.963-7.802l42.314-16.43c57.278-22.24,91.942-23.992,148.364-7.499l2.268,0.663
			c2.764,8.372,10.65,14.439,19.936,14.439c11.58,0,21.001-9.422,21.001-21.001V46.6C419.681,35.022,410.259,25.602,398.68,25.602z
			 M355.273,424.981h0.584c3.309,0,6,2.691,6,6c0,3.309-2.691,6-6,6h-76.504c-3.309,0-6-2.691-6-6c0-3.309,2.691-6,6-6
			C287.161,424.981,347.396,424.981,355.273,424.981z M328.552,367.645c10.599,0,19.221,8.622,19.221,19.221v23.114h-60.336v-24.015
			c0-10.103,8.218-18.32,18.32-18.32H328.552z M154.834,264.584h-23.932c-8.861,0-16.07,7.209-16.07,16.07v11.02
			c0,4.143,3.358,7.5,7.5,7.5c4.142,0,7.5-3.357,7.5-7.5v-11.02c0-2.044,2.193-0.632,25.001-1.069v87.672h-23.016
			c-1.094,0-1.985-0.891-1.985-1.984v-38.597c0-4.143-3.358-7.5-7.5-7.5c-4.142,0-7.5,3.357-7.5,7.5v38.597
			c0,9.366,7.619,16.985,16.986,16.985h23.016v0.334c0,17.922-14.581,32.502-32.502,32.502s-32.502-14.58-32.502-32.502V242.534
			c20.879,5.933,43.618,6.27,65.004,0.691V264.584z M404.68,200.612c0,3.309-2.691,6-6,6c-3.309,0-6-2.691-6-6V46.603
			c0-3.309,2.691-6,6-6c3.309,0,6,2.691,6,6V200.612z"/>
	</g>
</g>
<g>
	<g>
		<path d="M65.349,63.974c-16.515,15.78-25.52,37.518-25.52,59.633c0,46.798,39.304,84.963,87.064,82.371
			c44.136-2.45,77.94-39.106,77.94-82.371C204.834,51.128,117.535,14.095,65.349,63.974z M189.779,121.463l-65.303-65.304
			C159.992,57.276,188.663,85.946,189.779,121.463z M54.882,121.562l69.495,69.495C85.526,192.213,53.718,160.439,54.882,121.562z
			 M176.099,164.358l-25.862-25.863c-2.929-2.928-7.678-2.928-10.607,0c-2.929,2.93-2.929,7.678,0,10.608l26.128,26.128
			c-6.743,5.682-14.605,10.076-23.21,12.783L57.926,103.39c2.707-8.606,7.1-16.468,12.783-23.211l43.989,43.989
			c2.929,2.928,7.678,2.928,10.607,0c2.929-2.93,2.929-7.678,0-10.608L81.582,69.838c6.959-5.288,14.982-9.285,23.786-11.573
			l82.304,82.304C185.484,148.992,181.621,157.09,176.099,164.358z"/>
	</g>
</g>
<g>
	<g>
		<path d="M511.73,30.619c-1.097-3.995-5.218-6.348-9.218-5.248l-58.309,16.001c-3.995,1.096-6.345,5.223-5.248,9.218
			c0.914,3.331,3.934,5.518,7.229,5.518c1.828,0-1.118,0.484,60.297-16.271C510.477,38.74,512.827,34.613,511.73,30.619z"/>
	</g>
</g>
<g>
	<g>
		<path d="M511.73,68.12c-1.097-3.995-5.218-6.347-9.218-5.248l-58.309,16.001c-3.995,1.096-6.345,5.223-5.248,9.218
			c1.095,3.991,5.221,6.347,9.218,5.248l58.309-16.001C510.477,76.242,512.827,72.114,511.73,68.12z"/>
	</g>
</g>
<g>
	<g>
		<path d="M511.729,105.62c-1.097-3.994-5.217-6.35-9.217-5.247l-58.309,16.001c-8.393,2.302-6.712,14.735,1.98,14.735
			c0.656,0,1.324-0.087,1.988-0.27l58.309-16.001C510.476,113.742,512.826,109.614,511.729,105.62z"/>
	</g>
</g>
<g>
	<g>
		<path d="M511.73,143.122c-1.097-3.995-5.218-6.349-9.218-5.248l-58.309,16.001c-3.995,1.096-6.345,5.223-5.248,9.218
			c1.095,3.991,5.221,6.347,9.218,5.248l58.309-16.001C510.477,151.244,512.827,147.117,511.73,143.122z"/>
	</g>
</g>
<g>
	<g>
		<path d="M511.73,180.624c-1.097-3.995-5.218-6.347-9.218-5.248l-58.309,16.001c-3.995,1.096-6.345,5.223-5.248,9.218
			c0.914,3.331,3.934,5.518,7.229,5.518c0.656,0,1.324-0.087,1.988-0.27l58.309-16.001
			C510.477,188.745,512.827,184.618,511.73,180.624z"/>
	</g>
</g>
<g>
</g>
<g>
</g>
<g>
</g>
<g>
</g>
<g>
</g>
<g>
</g>
<g>
</g>
<g>
</g>
<g>
</g>
<g>
</g>
<g>
</g>
<g>
</g>
<g>
</g>
<g>
</g>
<g>
</g>
</svg>
