<svg height="480pt" viewBox="0 0 480 480" width="480pt" xmlns="http://www.w3.org/2000/svg"><path d="m226.878906 64h16c0-2.03125.609375-2.742188 2.898438-5.136719 4.664062-4.09375 7.339844-10 7.339844-16.207031s-2.675782-12.113281-7.339844-16.207031c-2.289063-2.402344-2.898438-3.105469-2.898438-5.136719s.480469-2.601562 2.890625-5.113281c4.640625-4.109375 7.316407-10 7.351563-16.199219h-16c0 1.945312-.480469 2.601562-2.898438 5.113281-4.664062 4.089844-7.339844 9.996094-7.339844 16.203125 0 6.207032 2.675782 12.113282 7.339844 16.203125 2.289063 2.402344 2.898438 3.105469 2.898438 5.136719s-.609375 2.742188-2.898438 5.136719c-4.636718 4.113281-7.308594 10.007812-7.34375 16.207031zm0 0"/><path d="m282.878906 64h16c0-2.03125.609375-2.742188 2.898438-5.136719 4.664062-4.09375 7.339844-10 7.339844-16.207031s-2.675782-12.113281-7.339844-16.207031c-2.289063-2.402344-2.898438-3.105469-2.898438-5.136719s.480469-2.601562 2.890625-5.113281c4.640625-4.109375 7.316407-10 7.351563-16.199219h-16c0 1.945312-.480469 2.601562-2.898438 5.113281-4.664062 4.089844-7.339844 9.996094-7.339844 16.203125 0 6.207032 2.675782 12.113282 7.339844 16.203125 2.289063 2.402344 2.898438 3.105469 2.898438 5.136719s-.609375 2.742188-2.898438 5.136719c-4.636718 4.113281-7.308594 10.007812-7.34375 16.207031zm0 0"/><path d="m338.878906 64h16c0-2.03125.609375-2.742188 2.898438-5.136719 4.664062-4.09375 7.339844-10 7.339844-16.207031s-2.675782-12.113281-7.339844-16.207031c-2.289063-2.402344-2.898438-3.105469-2.898438-5.136719s.480469-2.601562 2.890625-5.113281c4.640625-4.109375 7.316407-10 7.351563-16.199219h-16c0 1.945312-.480469 2.601562-2.898438 5.113281-4.664062 4.089844-7.339844 9.996094-7.339844 16.203125 0 6.207032 2.675782 12.113282 7.339844 16.203125 2.289063 2.402344 2.898438 3.105469 2.898438 5.136719s-.609375 2.742188-2.898438 5.136719c-4.636718 4.113281-7.308594 10.007812-7.34375 16.207031zm0 0"/><path d="m114.878906 64h16c0-2.03125.609375-2.742188 2.898438-5.136719 4.664062-4.09375 7.339844-10 7.339844-16.207031s-2.675782-12.113281-7.339844-16.207031c-2.289063-2.402344-2.898438-3.105469-2.898438-5.136719s.480469-2.601562 2.890625-5.113281c4.640625-4.109375 7.316407-10 7.351563-16.199219h-16c0 1.945312-.480469 2.601562-2.898438 5.113281-4.664062 4.089844-7.339844 9.996094-7.339844 16.203125 0 6.207032 2.675782 12.113282 7.339844 16.203125 2.289063 2.402344 2.898438 3.105469 2.898438 5.136719s-.609375 2.742188-2.898438 5.136719c-4.636718 4.113281-7.308594 10.007812-7.34375 16.207031zm0 0"/><path d="m170.878906 64h16c0-2.03125.609375-2.742188 2.898438-5.136719 4.664062-4.09375 7.339844-10 7.339844-16.207031s-2.675782-12.113281-7.339844-16.207031c-2.289063-2.402344-2.898438-3.105469-2.898438-5.136719s.480469-2.601562 2.890625-5.113281c4.640625-4.109375 7.316407-10 7.351563-16.199219h-16c0 1.945312-.480469 2.601562-2.898438 5.113281-4.664062 4.089844-7.339844 9.996094-7.339844 16.203125 0 6.207032 2.675782 12.113282 7.339844 16.203125 2.289063 2.402344 2.898438 3.105469 2.898438 5.136719s-.609375 2.742188-2.898438 5.136719c-4.636718 4.113281-7.308594 10.007812-7.34375 16.207031zm0 0"/><path d="m472 296c4.417969 0 8-3.582031 8-8v-64c0-4.417969-3.582031-8-8-8h-40v-112c0-13.253906-10.746094-24-24-24s-24 10.746094-24 24v8h-32v-8c0-13.253906-10.746094-24-24-24s-24 10.746094-24 24v8h-32c0-17.671875-14.328125-32-32-32s-32 14.328125-32 32h-32v-8c0-13.253906-10.746094-24-24-24s-24 10.746094-24 24v8h-32v-8c0-13.253906-10.746094-24-24-24s-24 10.746094-24 24v112h-40c-4.417969 0-8 3.582031-8 8v64c0 4.417969 3.582031 8 8 8h8v168h-16v16h48v-16h-16v-168h16v112c0 13.253906 10.746094 24 24 24s24-10.746094 24-24v-8h32v8c0 13.253906 10.746094 24 24 24s24-10.746094 24-24v-8h32c0 17.671875 14.328125 32 32 32s32-14.328125 32-32h32v8c0 13.253906 10.746094 24 24 24s24-10.746094 24-24v-8h32v8c0 13.253906 10.746094 24 24 24s24-10.746094 24-24v-112h16v168h-16v16h48v-16h-16v-168zm-456-16v-48h32v48zm64 128c0 4.417969-3.582031 8-8 8s-8-3.582031-8-8v-304c0-4.417969 3.582031-8 8-8s8 3.582031 8 8zm16-24v-256h32v256zm64 24c0 4.417969-3.582031 8-8 8s-8-3.582031-8-8v-304c0-4.417969 3.582031-8 8-8s8 3.582031 8 8zm16-24v-256h32v256zm80 16c0 8.835938-7.164062 16-16 16s-16-7.164062-16-16v-288c0-8.835938 7.164062-16 16-16s16 7.164062 16 16zm16-16v-256h32v256zm64 24c0 4.417969-3.582031 8-8 8s-8-3.582031-8-8v-304c0-4.417969 3.582031-8 8-8s8 3.582031 8 8zm16-24v-256h32v256zm64 24c0 4.417969-3.582031 8-8 8s-8-3.582031-8-8v-304c0-4.417969 3.582031-8 8-8s8 3.582031 8 8zm16-128v-48h32v48zm0 0"/></svg>