<svg height="512" viewBox="0 0 128 128" width="512" xmlns="http://www.w3.org/2000/svg"><g><path d="m102.087 43.253a1.751 1.751 0 0 0 -1.416-.722h-19.089a39.521 39.521 0 0 0 -11.9 1.918 1.7 1.7 0 0 0 -.454.14 41.7 41.7 0 0 0 -22.368 17.866l-1.544 2.545a1.751 1.751 0 0 0 1.5 2.658h69.552a1.751 1.751 0 0 0 1.417-2.778zm-20.487 2.779h2.183v3.781a2.253 2.253 0 0 1 -2.25 2.25h-7.564a2.253 2.253 0 0 1 -2.25-2.25v-2.334a36 36 0 0 1 9.881-1.447zm-31.678 18.124a38.215 38.215 0 0 1 18.3-15.471v1.128a5.757 5.757 0 0 0 5.75 5.75h7.562a5.757 5.757 0 0 0 5.75-5.75v-3.781h12.5l13.154 18.125z"/><path d="m127.666 64.878-10.279-14.164 7.233-9.094a1.749 1.749 0 0 0 .081-2.067l-2.3-3.413 5.008-4.422a1.747 1.747 0 0 0 .591-1.312v-7.875a1.751 1.751 0 0 0 -2.709-1.464l-10.467 6.854-10.575 6.609h-32.4a72.592 72.592 0 0 0 -69.313 50.47 73.647 73.647 0 0 0 -2.512 10.239 1.751 1.751 0 0 0 1.726 2.042h4.927l4.519 8.975a1.749 1.749 0 0 0 1.563.963h81.983a1.749 1.749 0 0 0 1.563-.963l4.519-8.975h3.926a1.75 1.75 0 0 0 1.416-.721l7.258-10 14.242-19.625a1.752 1.752 0 0 0 0-2.057zm-12.412-17.1-7.986-11 7.976-4.985 3.4 5.037 2.442 3.622zm9.246-18.161-4.073 3.6-.7-1.044-1.53-2.271 6.307-4.129zm-30.836 74.1h-79.827l-3.237-6.436h86.306zm10.194-9.938h-100.005c.437-2.17.983-4.346 1.635-6.5h103.087zm7.257-10h-104.468a69.1 69.1 0 0 1 65.2-45.75h32.01l9.916 13.663 10.311 14.207z"/></g></svg>