<svg id="Capa_1" enable-background="new 0 0 512.019 512.019" height="512" viewBox="0 0 512.019 512.019" width="512" xmlns="http://www.w3.org/2000/svg"><g><path d="m186.207 196.951c0 30.226 32.007 53.227 69.804 53.227 37.807 0 69.804-23.009 69.804-53.227 0-20.694-15.448-39.259-39.639-48.038-5.366-10.192-16.868-17.255-30.165-17.255-13.296 0-24.798 7.063-30.164 17.255-24.192 8.778-39.64 27.344-39.64 48.038zm69.803-50.294c10.488 0 18.387 7.113 18.387 15.176 0 8.368-8.248 15.176-18.387 15.176-10.138 0-18.386-6.808-18.386-15.176.001-8.828 8.805-15.176 18.386-15.176zm-32.986 19.85c2.208 12.762 13.005 22.135 25.486 24.733v16.237c-5.144-.961-10.137-2.88-14.718-5.729-3.515-2.186-8.142-1.111-10.33 2.406s-1.111 8.142 2.406 10.33c9.164 5.702 19.587 8.715 30.142 8.715 10.556 0 20.979-3.014 30.143-8.715 3.518-2.188 4.595-6.813 2.406-10.33-2.188-3.518-6.815-4.594-10.33-2.406-4.581 2.85-9.574 4.768-14.719 5.729v-16.237c12.904-2.689 23.345-12.336 25.487-24.733 13.537 7.165 21.816 18.396 21.816 30.443 0 21.079-24.585 38.227-54.804 38.227s-54.804-17.148-54.804-38.227c.002-12.046 8.282-23.278 21.819-30.443z"/><path d="m297.239 139.552c3.824 1.588 8.214-.224 9.804-4.049.744-1.793 3.153-3.724 6.683-3.724s5.938 1.931 6.683 3.724c1.591 3.827 5.98 5.638 9.804 4.049 3.825-1.589 5.639-5.978 4.05-9.803-3.223-7.758-11.476-12.97-20.536-12.97s-17.313 5.212-20.536 12.97c-1.591 3.825.223 8.214 4.048 9.803z"/><path d="m191.614 135.501c.744-1.793 3.153-3.723 6.683-3.723 3.528 0 5.938 1.93 6.682 3.723 1.588 3.826 5.975 5.639 9.803 4.051 3.825-1.588 5.639-5.977 4.051-9.802-3.221-7.759-11.474-12.972-20.535-12.972-9.062 0-17.315 5.213-20.536 12.972-1.588 3.825.226 8.214 4.051 9.802s8.212-.225 9.801-4.051z"/><path d="m417.139 376.831c3.453-5.175 5.942-10.987 7.277-17.124 2.584-11.884 3.369-25.195 2.334-39.562-.297-4.13-3.875-7.236-8.02-6.941-4.131.297-7.239 3.888-6.941 8.02.932 12.937.249 24.813-2.031 35.297-.76 3.493-1.999 6.762-3.705 9.778-18.29-13.763-42.403-17.093-64.995-7.897-5.64-19.676 19.404-57.183-13.25-105.906 8.732-6.324 16.542-13.727 23.33-22.114 16.266 10.943 40.216 30.698 52.58 58.363 1.69 3.783 6.126 5.479 9.908 3.787 3.781-1.69 5.477-6.126 3.787-9.907-13.758-30.783-39.828-52.469-57.604-64.482 11.772-18.798 18.59-41.002 18.59-64.771 0-5.793-.414-11.49-1.196-17.071 49.466-23.433 58.443-91.817 15.236-123.378-33.075-24.163-80.377-13.261-102.463 22.858-22.12-6.399-45.796-6.404-67.931 0-22.029-36.02-69.314-47.075-102.463-22.858-43.23 31.577-34.208 99.957 15.236 123.377-.782 5.581-1.196 11.278-1.196 17.071 0 23.767 6.817 45.969 18.588 64.766-25.603 17.236-62.44 50.219-66.718 99.22-1.349 15.446-.637 29.694 2.114 42.349 1.334 6.136 3.823 11.949 7.277 17.124-16.586 19.863-22.69 49.844-12.603 79.129 14.632 42.482 56.919 65.261 93.876 52.532 12.36-4.257 22.657-11.993 30.404-21.934 15.8 6.417 32.404 9.676 49.45 9.676 17.047 0 33.651-3.259 49.451-9.676 7.747 9.942 18.044 17.677 30.404 21.934 37.15 12.796 79.314-10.254 93.876-52.532 10.017-29.078 4.115-59.107-12.602-79.128zm-52.349-279.606c-8.545-16.579-20.688-30.881-35.7-42.042 10.488-8.33 24.367-9.643 34.251-2.424 13.101 9.571 13.819 30.245 1.449 44.466zm18.802-72.19c32.748 23.923 27.155 75.741-9.514 96.029-.737-2.699-1.792-6.059-2.879-9.082 22.921-20.054 23.135-55.158.989-71.336-16.698-12.199-40.259-9.301-56.148 6.061-3.733-2.105-7.586-4.029-11.558-5.744 18.446-26.864 54.244-34.092 79.11-15.928zm-245.649 96.029c-36.739-20.325-42.2-72.153-9.514-96.029 25.165-18.382 60.974-10.561 79.109 15.929-3.972 1.714-7.825 3.639-11.557 5.743-15.889-15.362-39.449-18.26-56.148-6.06-22.175 16.199-21.904 51.307.989 71.336-1.114 3.096-2.185 6.541-2.879 9.081zm10.738-68.305c10.134-7.403 24.05-5.676 34.251 2.424-15.013 11.161-27.156 25.462-35.7 42.041-12.321-14.164-11.705-34.856 1.449-44.465zm-.059 100.612c0-59.046 48.016-107.389 107.389-107.389 59.239 0 107.39 48.212 107.39 107.389 0 59.223-48.196 107.39-107.39 107.39-59.213 0-107.389-48.174-107.389-107.39zm-48.187 165.292c3.763-43.106 37.245-72.734 60.444-88.287 6.789 8.39 14.601 15.794 23.334 22.12-32.695 48.777-7.611 86.22-13.25 105.906-22.606-9.202-46.702-5.868-64.995 7.897-1.706-3.015-2.945-6.284-3.705-9.778-2.429-11.18-3.046-23.917-1.828-37.858zm70.836 175.647c-29.049 10.007-62.881-8.603-74.81-43.234-19.398-56.325 32.321-104.97 80.215-72.694.061.041.122.081.183.122 43.935 29.827 39.574 100.25-5.588 115.806zm122.197-82.606c-6.832 3.328-14.01 5.729-21.378 7.15-4.067.784-6.729 4.716-5.944 8.784.786 4.081 4.733 6.729 8.784 5.945 5.056-.975 10.031-2.348 14.893-4.093-1.578 16.03 1.4 31.505 7.544 44.144-13.266 5.047-27.142 7.6-41.357 7.6s-28.091-2.553-41.356-7.6c6.132-12.613 9.128-28.063 7.544-44.145 4.861 1.745 9.835 3.118 14.892 4.093 4.066.791 8-1.877 8.784-5.944s-1.877-8-5.944-8.784c-7.369-1.421-14.546-3.822-21.376-7.15-5.651-18.333-17.594-35.271-34.113-46.178 10.095-29.866-18.289-59.802 12.443-104.979 36.527 20.185 81.414 20.356 118.254 0 30.958 46.17 2.131 75.967 12.443 104.979-16.55 10.915-28.51 27.973-34.113 46.178zm122.092 39.371c-11.613 33.714-44.967 53.516-74.81 43.234-27.812-9.58-42.744-42.42-33.747-75.423 12.943-47.402 64.81-65.983 95.076-36.24.037.036.077.067.115.102 15.625 15.43 22.481 41.861 13.366 68.327z"/></g></svg>