<?xml version="1.0"?>
<svg xmlns="http://www.w3.org/2000/svg" width="512" height="512" viewBox="0 0 128 128"><g><path d="M93.1,29.034c-1.2-4.336-2.467-8.592-3.772-12.65l-1.66-5.162L85.786,5.377A7.728,7.728,0,0,0,78.408,0H49.592a7.727,7.727,0,0,0-7.378,5.377l-1.879,5.845-1.66,5.162C37.37,20.442,36.1,24.7,34.9,29.034a317.158,317.158,0,0,0-11.45,84.415v6.8A7.759,7.759,0,0,0,31.2,128H96.8a7.759,7.759,0,0,0,7.75-7.75v-6.8A317.158,317.158,0,0,0,93.1,29.034ZM45.546,6.449A4.238,4.238,0,0,1,49.592,3.5H78.408a4.238,4.238,0,0,1,4.046,2.949L83.6,10.008H44.4Zm27.07,7.059a5.722,5.722,0,0,1-5.436,3.961H60.82a5.721,5.721,0,0,1-5.436-3.961ZM42.007,17.455l1.269-3.947h8.5a9.223,9.223,0,0,0,9.039,7.461h6.36a9.223,9.223,0,0,0,9.039-7.461h8.505l1.269,3.947c1.067,3.319,2.11,6.773,3.109,10.3H38.9C39.9,24.228,40.94,20.774,42.007,17.455Zm59.04,102.792a4.255,4.255,0,0,1-4.25,4.25H31.2a4.255,4.255,0,0,1-4.25-4.25v-6.8a313.628,313.628,0,0,1,10.972-82.2h52.15a313.67,313.67,0,0,1,10.972,82.2Z"/><path d="M83.7,37.75H44.3a1.751,1.751,0,0,0-1.7,1.326,307.315,307.315,0,0,0-9.149,74.373v2.8A1.751,1.751,0,0,0,35.2,118H92.8a1.751,1.751,0,0,0,1.75-1.75v-2.8A307.266,307.266,0,0,0,85.4,39.076,1.749,1.749,0,0,0,83.7,37.75ZM91.047,114.5H36.953v-1.048a303.8,303.8,0,0,1,8.717-72.2H82.33a303.8,303.8,0,0,1,8.717,72.2Z"/><path d="M78.806,70.107a5.593,5.593,0,0,0-4.3-.337,38.05,38.05,0,0,0-5.317,2.184,38.2,38.2,0,0,0,.435-5.731,5.629,5.629,0,0,0-11.258,0,38.186,38.186,0,0,0,.435,5.731,38.171,38.171,0,0,0-5.317-2.184,5.629,5.629,0,1,0-3.478,10.707A38.207,38.207,0,0,0,55.6,81.834a38.285,38.285,0,0,0-3.722,4.382,5.629,5.629,0,0,0,9.108,6.617A38.168,38.168,0,0,0,64,87.94a38.168,38.168,0,0,0,3.018,4.893,5.629,5.629,0,0,0,9.107-6.617h0A38.251,38.251,0,0,0,72.4,81.834a38.251,38.251,0,0,0,5.586-1.357,5.63,5.63,0,0,0,.816-10.37Zm-16.019,5.54a3.245,3.245,0,0,1,.862-.187,3.674,3.674,0,1,1-3.242,2.867,3.8,3.8,0,0,1,1.145-1.949,3.692,3.692,0,0,1,.952-.628C62.6,75.709,62.692,75.679,62.787,75.647ZM64,64.094a2.131,2.131,0,0,1,2.129,2.129,34.814,34.814,0,0,1-.5,5.889,7.294,7.294,0,0,0-3.25,0,34.712,34.712,0,0,1-.5-5.889A2.131,2.131,0,0,1,64,64.094ZM49.725,74.465A2.123,2.123,0,0,1,52.408,73.1a34.713,34.713,0,0,1,5.443,2.3,7.214,7.214,0,0,0-1,3.092,34.731,34.731,0,0,1-5.755-1.34A2.132,2.132,0,0,1,49.725,74.465Zm8.426,16.31a2.129,2.129,0,0,1-3.445-2.5A34.787,34.787,0,0,1,58.58,83.8a6.765,6.765,0,0,0,2.625,1.916A34.78,34.78,0,0,1,58.151,90.775Zm14.671.472a2.128,2.128,0,0,1-2.973-.472A34.78,34.78,0,0,1,66.8,85.716,8,8,0,0,0,69.42,83.8a34.779,34.779,0,0,1,3.873,4.473A2.132,2.132,0,0,1,72.822,91.247Zm4.086-14.1a34.831,34.831,0,0,1-5.755,1.34,7.688,7.688,0,0,0-1-3.092,34.783,34.783,0,0,1,5.444-2.3,2.129,2.129,0,0,1,1.315,4.05Z"/></g></svg>
