<svg id="Capa_1" enable-background="new 0 0 511.999 511.999" height="512" viewBox="0 0 511.999 511.999" width="512" xmlns="http://www.w3.org/2000/svg"><g><path d="m13.78 266.378h1.553v231.833c0 7.599 6.182 13.78 13.78 13.78h18.107c7.599 0 13.78-6.182 13.78-13.78v-40.833h389.999v40.833c0 7.599 6.182 13.78 13.78 13.78h18.106c7.599 0 13.78-6.182 13.78-13.78v-103.222c0-4.143-3.357-7.5-7.5-7.5s-7.5 3.357-7.5 7.5v102.002h-15.667c0-11.173 0-219.535 0-230.613h15.667v93.611c0 4.143 3.357 7.5 7.5 7.5s7.5-3.357 7.5-7.5v-93.611h1.553c7.599 0 13.78-6.182 13.78-13.78v-18.106c0-7.598-6.182-13.779-13.78-13.779h-40.623v-17.079c0-10.691-8.651-19.392-19.319-19.491l36.488-36.488c12.338-3.433 21.42-14.76 21.42-28.177 0-13.416-9.082-24.744-21.419-28.177l-62.625-62.628c-2.99-21.758-23.627-30.186-46.728-28.443-15.866 1.203-33.911 6.973-51.446 16.362-2.306-3.292-6.819-4.197-10.219-1.991-3.474 2.256-4.462 6.9-2.207 10.375 6.369 9.812 47.566 73.275 54.206 83.503 2.253 3.471 6.895 4.464 10.375 2.207 3.22-2.091 4.299-6.233 2.645-9.594 10.737-8.329 20.018-17.56 27.238-27.041l41.901 41.901c-.285 2.357-.301 4.556 0 7.05l-56.88 56.88c-1.275 1.275-2.374 2.708-3.29 4.251h-11.64c-10.752 0-19.5 8.748-19.5 19.5v17.079h-143.888v-23.047c3.755-.41 6.677-3.589 6.677-7.453s-2.922-7.042-6.677-7.453v-23.095c3.755-.41 6.677-3.589 6.677-7.453s-2.922-7.042-6.677-7.453v-23.095c3.755-.41 6.677-3.589 6.677-7.453 0-4.143-3.357-7.5-7.5-7.5h-6.677-138.314c-14.612 0-26.5 11.888-26.5 26.5 0 7.447 3.092 14.181 8.054 19-4.962 4.819-8.054 11.553-8.054 19s3.092 14.181 8.054 19c-4.962 4.819-8.054 11.553-8.054 19 0 4.118.945 8.02 2.628 11.5h-19.241c-7.599 0-13.78 6.182-13.78 13.779v18.106c0 7.601 6.182 13.783 13.78 13.783zm346.838-177.945c-7.99-12.308-30.424-46.867-38.446-59.224 37.111-19.463 74.263-19.776 75.296 3.445.88 19.903-21.116 43.351-36.85 55.779zm-314.618 408.558h-15.667v-230.613h15.667zm404.999-54.613h-389.999v-110h79.268c4.143 0 7.5-3.357 7.5-7.5s-3.357-7.5-7.5-7.5h-79.268v-51h187.499v51h-73.231c-4.143 0-7.5 3.357-7.5 7.5s3.357 7.5 7.5 7.5h275.731zm0-125h-187.5v-51h187.5zm16.802-212.107c7.527.457 13.385 6.713 13.385 14.206 0 7.575-5.931 13.723-13.327 14.203-8.062.513-15.173-5.883-15.173-14.203 0-8.133 6.886-14.699 15.115-14.206zm-63.392-44.031c2.283-4.153 4.336-8.753 5.758-13.326l44.858 44.858c-4.219 1.889-7.913 4.745-10.794 8.291zm39.821 76.651c2.881 3.545 6.574 6.401 10.793 8.291l-37.952 37.952h-19.085zm-82.634 65.742c0-2.439 2.061-4.5 4.5-4.5h72c2.439 0 4.5 2.061 4.5 4.5v17.079h-81zm-304.703-81.921h130.814v23h-130.814c-6.341 0-11.5-5.159-11.5-11.5s5.159-11.5 11.5-11.5zm0 38h130.814v23h-130.814c-6.341 0-11.5-5.159-11.5-11.5s5.159-11.5 11.5-11.5zm0 38h130.814v23h-130.814c-6.341 0-11.5-5.159-11.5-11.5s5.159-11.5 11.5-11.5zm-41.893 38h481.999v15.666c-6.287 0-478.027 0-481.999 0z"/><path d="m346.981 299.378h14.5c4.143 0 7.5-3.357 7.5-7.5s-3.357-7.5-7.5-7.5h-14.5c-4.143 0-7.5 3.357-7.5 7.5s3.358 7.5 7.5 7.5z"/><path d="m172.518 291.878c0-4.143-3.357-7.5-7.5-7.5h-14.5c-4.143 0-7.5 3.357-7.5 7.5s3.357 7.5 7.5 7.5h14.5c4.142 0 7.5-3.357 7.5-7.5z"/></g></svg>