<?xml version="1.0" standalone="no"?>
<!DOCTYPE svg PUBLIC "-//W3C//DTD SVG 20010904//EN"
 "http://www.w3.org/TR/2001/REC-SVG-20010904/DTD/svg10.dtd">
<svg version="1.0" xmlns="http://www.w3.org/2000/svg"
 width="700.000000pt" height="700.000000pt" viewBox="0 0 700.000000 700.000000"
 preserveAspectRatio="xMidYMid meet">
<metadata>
Created by potrace 1.11, written by Peter Selinger 2001-2013
</metadata>
<g transform="translate(0.000000,700.000000) scale(0.100000,-0.100000)"
fill="#000000" stroke="none">
<path d="M3409 6866 c-2 -2 -44 -6 -94 -10 -49 -3 -99 -8 -110 -10 -11 -2 -49
-7 -85 -11 -36 -4 -83 -10 -105 -15 -22 -5 -56 -12 -75 -15 -69 -12 -207 -47
-320 -82 -1079 -332 -1914 -1201 -2204 -2293 -14 -52 -27 -106 -30 -120 -2
-14 -9 -45 -14 -70 -6 -25 -13 -63 -17 -85 -3 -22 -10 -67 -15 -100 -8 -54
-11 -85 -26 -229 -5 -50 -5 -439 0 -481 2 -16 7 -64 10 -105 4 -41 11 -97 16
-125 6 -27 12 -66 14 -85 5 -38 35 -177 60 -280 23 -90 81 -267 126 -380 239
-600 668 -1132 1210 -1500 254 -172 532 -308 825 -403 95 -31 204 -62 255 -72
8 -2 35 -8 60 -14 65 -15 206 -39 270 -46 30 -4 66 -8 80 -10 101 -16 445 -22
580 -11 102 9 170 16 200 21 14 2 45 7 70 10 25 3 86 14 135 25 50 10 101 21
115 24 119 24 410 118 525 170 237 108 370 180 530 287 92 61 193 133 222 158
6 6 51 44 100 84 154 129 358 344 485 512 56 74 189 271 206 305 7 14 28 52
47 85 40 68 129 250 153 310 8 22 18 45 22 50 3 6 13 30 20 55 7 25 17 50 21
55 18 26 112 357 134 470 5 29 28 170 39 245 21 135 28 512 13 685 -66 772
-394 1480 -937 2026 -157 158 -220 213 -375 329 -396 297 -863 501 -1360 595
-53 10 -212 32 -295 41 -56 6 -476 15 -481 10z"/>
</g>
</svg>
