<svg id="Layer_1" data-name="Layer 1" xmlns="http://www.w3.org/2000/svg" xmlns:xlink="http://www.w3.org/1999/xlink" viewBox="0 0 80 40"><defs><style>.cls-1{fill:none;}.cls-2{fill:#e4215b;}.cls-3{fill:url(#linear-gradient);}.cls-4{fill:url(#linear-gradient-2);}.cls-5{clip-path:url(#clip-path);}.cls-6{fill:#ff9800;}.cls-7{fill:#ff9700;}.cls-8{fill:#ff9701;}.cls-9{fill:#ff9601;}.cls-10{fill:#ff9602;}.cls-11{fill:#fe9602;}.cls-12{fill:#fe9502;}.cls-13{fill:#fe9503;}.cls-14{fill:#fe9403;}.cls-15{fill:#fe9303;}.cls-16{fill:#fe9304;}.cls-17{fill:#fe9205;}.cls-18{fill:#fd9105;}.cls-19{fill:#fd9106;}.cls-20{fill:#fd9006;}.cls-21{fill:#fd8f07;}.cls-22{fill:#fd8e07;}.cls-23{fill:#fd8e08;}.cls-24{fill:#fd8d08;}.cls-25{fill:#fc8c09;}.cls-26{fill:#fc8b0a;}.cls-27{fill:#fc8a0a;}.cls-28{fill:#fc8a0b;}.cls-29{fill:#fc890b;}.cls-30{fill:#fb880c;}.cls-31{fill:#fb880d;}.cls-32{fill:#fb870d;}.cls-33{fill:#fb860e;}.cls-34{fill:#fb850e;}.cls-35{fill:#fb840f;}.cls-36{fill:#fa8410;}.cls-37{fill:#fa8310;}.cls-38{fill:#fa8211;}.cls-39{fill:#fa8112;}.cls-40{fill:#fa8012;}.cls-41{fill:#f97f13;}.cls-42{fill:#f97e14;}.cls-43{fill:#f97d14;}.cls-44{fill:#f97d15;}.cls-45{fill:#f97c16;}.cls-46{fill:#f87b16;}.cls-47{fill:#f87a17;}.cls-48{fill:#f87918;}.cls-49{fill:#f87819;}.cls-50{fill:#f7771a;}.cls-51{fill:#f7761a;}.cls-52{fill:#f7751b;}.cls-53{fill:#f7731c;}.cls-54{fill:#f6721d;}.cls-55{fill:#f6711e;}.cls-56{fill:#f6701e;}.cls-57{fill:#f66f1f;}.cls-58{fill:#f56e20;}.cls-59{fill:#f56d21;}.cls-60{fill:#f56c22;}.cls-61{fill:#f56a23;}.cls-62{fill:#f46924;}.cls-63{fill:#f46825;}.cls-64{fill:#f46726;}.cls-65{fill:#f46627;}.cls-66{fill:#f36427;}.cls-67{fill:#f36328;}.cls-68{fill:#f36229;}.cls-69{fill:#f2612a;}.cls-70{fill:#f25f2b;}.cls-71{fill:#f25e2c;}.cls-72{fill:#f25d2d;}.cls-73{fill:#f15b2e;}.cls-74{fill:#f15a2f;}.cls-75{fill:#f15930;}.cls-76{fill:#f05732;}.cls-77{fill:#f05633;}.cls-78{fill:#f05434;}.cls-79{fill:#ef5335;}.cls-80{fill:#ef5236;}.cls-81{fill:#ef5037;}.cls-82{fill:#ee4f38;}.cls-83{fill:#ee4d39;}.cls-84{fill:#ee4c3a;}.cls-85{fill:#ed4a3b;}.cls-86{fill:#ed493d;}.cls-87{fill:#ed473e;}.cls-88{fill:#ec463f;}.cls-89{fill:#ec4440;}.cls-90{fill:#ec4341;}.cls-91{fill:#eb4142;}.cls-92{fill:#eb3f44;}.cls-93{fill:#eb3e45;}.cls-94{fill:#ea3c46;}.cls-95{fill:#ea3b47;}.cls-96{fill:#e93949;}.cls-97{fill:#e9374a;}.cls-98{fill:#e9364b;}.cls-99{fill:#e8344c;}.cls-100{fill:#e8324e;}.cls-101{fill:#e8314f;}.cls-102{fill:#e72f50;}.cls-103{fill:#e72d52;}.cls-104{fill:#e62c53;}.cls-105{fill:#e62a54;}.cls-106{fill:#e62856;}.cls-107{fill:#e52657;}.cls-108{fill:#e52558;}.cls-109{fill:#e4235a;}</style><linearGradient id="linear-gradient" x1="14.15" y1="38.27" x2="14.15" y2="20.62" gradientUnits="userSpaceOnUse"><stop offset="0" stop-color="#ff9800"/><stop offset="0.17" stop-color="#fe9304"/><stop offset="0.35" stop-color="#fb850e"/><stop offset="0.56" stop-color="#f66e20"/><stop offset="0.77" stop-color="#ee4e38"/><stop offset="0.98" stop-color="#e52558"/><stop offset="1" stop-color="#e4215b"/><stop offset="1" stop-color="#e31c5f"/></linearGradient><linearGradient id="linear-gradient-2" x1="14.15" y1="2.24" x2="14.15" y2="19.89" gradientUnits="userSpaceOnUse"><stop offset="0" stop-color="#ff9800"/><stop offset="1" stop-color="#e4215b"/><stop offset="1" stop-color="#e31c5f"/></linearGradient><clipPath id="clip-path"><path class="cls-1" d="M16.36,36.8H12V31.65a2.21,2.21,0,0,1,2.2-2.21h0a2.21,2.21,0,0,1,2.21,2.21Z"/></clipPath></defs><title>Artboard 2</title><path class="cls-2" d="M35.23,11.35a2.26,2.26,0,0,1,1.47.42,2.17,2.17,0,0,1,.69,1.1,6.13,6.13,0,0,1,.19,1.54v3.43a.8.8,0,0,1-.23.58A.81.81,0,0,1,36,17.84V14.41a2.81,2.81,0,0,0-.11-.8,1.09,1.09,0,0,0-.39-.57,1.31,1.31,0,0,0-.8-.21,1.7,1.7,0,0,0-.87.21,1.43,1.43,0,0,0-.55.57,1.74,1.74,0,0,0-.18.8v3.43a.79.79,0,0,1-.8.82.77.77,0,0,1-.58-.24.8.8,0,0,1-.23-.58V9.56A.82.82,0,0,1,31.69,9a.8.8,0,0,1,.58-.23.77.77,0,0,1,.8.82v3.32l-.2,0a2.92,2.92,0,0,1,.34-.49,2.73,2.73,0,0,1,.52-.49,3.18,3.18,0,0,1,.68-.37A2.43,2.43,0,0,1,35.23,11.35Z"/><path class="cls-2" d="M46.21,15.08A3.76,3.76,0,0,1,45.72,17a3.41,3.41,0,0,1-1.31,1.3,3.86,3.86,0,0,1-3.69,0A3.41,3.41,0,0,1,39.41,17a3.76,3.76,0,0,1-.49-1.94,3.76,3.76,0,0,1,.49-1.94,3.5,3.5,0,0,1,1.31-1.31,3.79,3.79,0,0,1,3.69,0,3.5,3.5,0,0,1,1.31,1.31A3.76,3.76,0,0,1,46.21,15.08Zm-1.61,0a2.49,2.49,0,0,0-.27-1.19,2.13,2.13,0,0,0-.74-.78,2,2,0,0,0-2.05,0,2.06,2.06,0,0,0-.74.78,2.49,2.49,0,0,0-.27,1.19,2.41,2.41,0,0,0,.27,1.17,2,2,0,0,0,2.79.79,2.09,2.09,0,0,0,.74-.79A2.41,2.41,0,0,0,44.6,15.08Z"/><path class="cls-2" d="M49.29,17.84a.76.76,0,0,1-.23.58.78.78,0,0,1-.58.24.75.75,0,0,1-.57-.24.79.79,0,0,1-.22-.58V9.56A.78.78,0,0,1,47.92,9a.82.82,0,0,1,.58-.23.75.75,0,0,1,.57.23.82.82,0,0,1,.22.59Z"/><path class="cls-2" d="M51.87,10.62a1.07,1.07,0,0,1-.65-.15A.64.64,0,0,1,51,10V9.69a.61.61,0,0,1,.2-.53A1.22,1.22,0,0,1,51.88,9a1.11,1.11,0,0,1,.66.15.64.64,0,0,1,.19.52V10a.58.58,0,0,1-.21.52A1.09,1.09,0,0,1,51.87,10.62Zm.82,7.22a.8.8,0,0,1-.23.58.77.77,0,0,1-.58.24.79.79,0,0,1-.8-.82V12.3a.81.81,0,0,1,.22-.58.82.82,0,0,1,.58-.23.8.8,0,0,1,.58.23.82.82,0,0,1,.23.58Z"/><path class="cls-2" d="M60.14,8.74a.78.78,0,0,1,.58.23.8.8,0,0,1,.22.59v8.28a.79.79,0,0,1-.8.82.77.77,0,0,1-.58-.24.8.8,0,0,1-.23-.58v-.66l.3.13a.75.75,0,0,1-.19.42,2.41,2.41,0,0,1-.51.49,3.32,3.32,0,0,1-.75.41,2.71,2.71,0,0,1-1,.16,3.13,3.13,0,0,1-1.68-.47A3.36,3.36,0,0,1,54.37,17a4.09,4.09,0,0,1-.44-1.92,4.17,4.17,0,0,1,.44-1.94,3.38,3.38,0,0,1,1.17-1.31,2.94,2.94,0,0,1,1.64-.48,3.06,3.06,0,0,1,1.06.18,2.84,2.84,0,0,1,.83.44,2.57,2.57,0,0,1,.55.54.9.9,0,0,1,.2.47l-.49.17V9.56A.82.82,0,0,1,59.56,9,.8.8,0,0,1,60.14,8.74Zm-2.71,8.58a1.78,1.78,0,0,0,1-.3,1.86,1.86,0,0,0,.69-.8,2.75,2.75,0,0,0,0-2.29,2,2,0,0,0-.69-.81,2,2,0,0,0-2.05,0,2.11,2.11,0,0,0-.69.81,2.75,2.75,0,0,0,0,2.29,2,2,0,0,0,.69.8A1.8,1.8,0,0,0,57.43,17.32Z"/><path class="cls-2" d="M68.49,11.35a.79.79,0,0,1,.81.82v5.67a.8.8,0,0,1-.23.58.77.77,0,0,1-.58.24.79.79,0,0,1-.8-.82v-.66l.29.13a.75.75,0,0,1-.19.42,2.41,2.41,0,0,1-.51.49,3.32,3.32,0,0,1-.75.41,2.67,2.67,0,0,1-1,.16,3.12,3.12,0,0,1-1.67-.47A3.38,3.38,0,0,1,62.72,17a4.09,4.09,0,0,1-.44-1.92,4.17,4.17,0,0,1,.44-1.94,3.38,3.38,0,0,1,1.17-1.31,2.94,2.94,0,0,1,1.64-.48,3.23,3.23,0,0,1,1.9.62,2.83,2.83,0,0,1,.55.54,1,1,0,0,1,.19.47l-.48.17v-1a.79.79,0,0,1,.8-.82Zm-2.71,6a1.82,1.82,0,0,0,1-.3,2,2,0,0,0,.69-.8,2.85,2.85,0,0,0,0-2.29,2.11,2.11,0,0,0-.69-.81,1.89,1.89,0,0,0-1-.29,1.87,1.87,0,0,0-1,.29,2.11,2.11,0,0,0-.69.81,2.85,2.85,0,0,0,0,2.29,2,2,0,0,0,.69.8A1.8,1.8,0,0,0,65.78,17.32Z"/><path class="cls-2" d="M76.2,11.49a.82.82,0,0,1,.58.23.81.81,0,0,1,.22.58V18a3.66,3.66,0,0,1-.46,2A2.7,2.7,0,0,1,75.3,21a4.61,4.61,0,0,1-1.74.32,5.84,5.84,0,0,1-.91-.07,2.83,2.83,0,0,1-.79-.2,1.12,1.12,0,0,1-.56-.43.69.69,0,0,1-.06-.56.82.82,0,0,1,.39-.53.68.68,0,0,1,.56,0,4.77,4.77,0,0,1,.56.21,2.25,2.25,0,0,0,.81.14,2.71,2.71,0,0,0,1-.17,1.17,1.17,0,0,0,.62-.56,2.36,2.36,0,0,0,.21-1.08v-.9l.28.32a2.32,2.32,0,0,1-.57.73,2.44,2.44,0,0,1-.81.44,3.85,3.85,0,0,1-1.07.14A2.27,2.27,0,0,1,72,18.46a2.16,2.16,0,0,1-.83-.91,3,3,0,0,1-.29-1.33V12.3a.81.81,0,0,1,.22-.58.82.82,0,0,1,.58-.23.8.8,0,0,1,.58.23.82.82,0,0,1,.23.58v3.44A1.58,1.58,0,0,0,72.87,17a1.48,1.48,0,0,0,1.06.36,1.57,1.57,0,0,0,.79-.18,1.19,1.19,0,0,0,.5-.54,1.88,1.88,0,0,0,.18-.86V12.3a.81.81,0,0,1,.22-.58A.8.8,0,0,1,76.2,11.49Z"/><path class="cls-2" d="M35.23,25.4a2.32,2.32,0,0,1,1.47.41,2.2,2.2,0,0,1,.69,1.11,6,6,0,0,1,.19,1.53v3.44a.82.82,0,0,1-.23.58.83.83,0,0,1-1.15,0,.78.78,0,0,1-.23-.58V28.45a2.74,2.74,0,0,0-.11-.79,1.05,1.05,0,0,0-.39-.57,1.25,1.25,0,0,0-.8-.22,1.61,1.61,0,0,0-.87.22,1.37,1.37,0,0,0-.55.57,1.7,1.7,0,0,0-.18.79v3.44a.81.81,0,0,1-.22.58.78.78,0,0,1-.58.23.76.76,0,0,1-.58-.23.82.82,0,0,1-.23-.58V23.6a.8.8,0,0,1,.23-.58.77.77,0,0,1,.58-.24.79.79,0,0,1,.8.82v3.33l-.2,0a2.29,2.29,0,0,1,.34-.49,2.45,2.45,0,0,1,.52-.49,2.49,2.49,0,0,1,.68-.37A2.21,2.21,0,0,1,35.23,25.4Z"/><path class="cls-2" d="M46.21,29.12a3.73,3.73,0,0,1-.49,1.94,3.43,3.43,0,0,1-1.31,1.31,3.86,3.86,0,0,1-3.69,0,3.43,3.43,0,0,1-1.31-1.31,4.07,4.07,0,0,1,0-3.87,3.53,3.53,0,0,1,1.31-1.32,3.86,3.86,0,0,1,3.69,0,3.53,3.53,0,0,1,1.31,1.32A3.72,3.72,0,0,1,46.21,29.12Zm-1.61,0a2.45,2.45,0,0,0-.27-1.18,2.09,2.09,0,0,0-.74-.79,2,2,0,0,0-2.79.79,2.45,2.45,0,0,0-.27,1.18,2.48,2.48,0,0,0,.27,1.18,2.06,2.06,0,0,0,.74.78,2,2,0,0,0,2.05,0,2.13,2.13,0,0,0,.74-.78A2.48,2.48,0,0,0,44.6,29.12Z"/><path class="cls-2" d="M52.87,25.53a.75.75,0,0,1,.58.24.8.8,0,0,1,.23.58v3.4A3.19,3.19,0,0,1,52.89,32a3,3,0,0,1-2.28.83A3,3,0,0,1,48.34,32a3.15,3.15,0,0,1-.79-2.26v-3.4a.8.8,0,0,1,.23-.58.81.81,0,0,1,1.15,0,.8.8,0,0,1,.23.58v3.4A1.78,1.78,0,0,0,49.52,31a1.73,1.73,0,0,0,2.19,0,1.78,1.78,0,0,0,.36-1.22v-3.4a.76.76,0,0,1,.23-.58A.75.75,0,0,1,52.87,25.53Z"/><path class="cls-2" d="M55,31.59a.85.85,0,0,1-.12-.48.65.65,0,0,1,.35-.51.78.78,0,0,1,.46-.12.81.81,0,0,1,.47.25,3.3,3.3,0,0,0,.82.61,2.4,2.4,0,0,0,1.07.21l.44-.06a.84.84,0,0,0,.42-.21.7.7,0,0,0,.18-.52.57.57,0,0,0-.2-.47,1.56,1.56,0,0,0-.53-.29c-.22-.08-.46-.16-.73-.23l-.85-.27a3.94,3.94,0,0,1-.8-.38,2,2,0,0,1-.59-.63,1.91,1.91,0,0,1-.22-1,1.75,1.75,0,0,1,.37-1.14,2.45,2.45,0,0,1,1-.73,3.18,3.18,0,0,1,1.26-.25,3.94,3.94,0,0,1,.87.1,3.15,3.15,0,0,1,.87.32,2.2,2.2,0,0,1,.7.58,1.1,1.1,0,0,1,.17.49.6.6,0,0,1-.25.51.72.72,0,0,1-.47.14.77.77,0,0,1-.45-.19,1.52,1.52,0,0,0-.61-.46,2,2,0,0,0-.87-.18,2.37,2.37,0,0,0-.44.05.88.88,0,0,0-.41.2.65.65,0,0,0-.17.49.61.61,0,0,0,.2.49,1.38,1.38,0,0,0,.54.29c.23.08.47.15.73.22s.54.16.82.26a3.21,3.21,0,0,1,.76.39,1.88,1.88,0,0,1,.57.62,2,2,0,0,1,.21,1,1.75,1.75,0,0,1-.4,1.17,2.58,2.58,0,0,1-1,.73,3.3,3.3,0,0,1-1.23.25,4.62,4.62,0,0,1-1.58-.28A2.69,2.69,0,0,1,55,31.59Z"/><path class="cls-2" d="M65.19,32.84a3.86,3.86,0,0,1-2-.48,3.33,3.33,0,0,1-1.29-1.29,3.78,3.78,0,0,1-.45-1.85A4,4,0,0,1,62,27.16a3.5,3.5,0,0,1,1.28-1.31,3.36,3.36,0,0,1,1.68-.45,3,3,0,0,1,1.29.28,3.44,3.44,0,0,1,1.08.77A3.75,3.75,0,0,1,68,27.58,3.36,3.36,0,0,1,68.32,29a.69.69,0,0,1-.26.52.82.82,0,0,1-.56.2H62.38L62,28.33H66.9l-.3.27v-.36a1.29,1.29,0,0,0-.27-.7,1.87,1.87,0,0,0-.62-.49,1.78,1.78,0,0,0-.78-.18,2.68,2.68,0,0,0-.76.11,1.42,1.42,0,0,0-.6.36,1.8,1.8,0,0,0-.4.68A3.37,3.37,0,0,0,63,29.11a2.39,2.39,0,0,0,.3,1.23,2.07,2.07,0,0,0,1.79,1,2.82,2.82,0,0,0,.79-.08,1.84,1.84,0,0,0,.48-.19l.33-.2a1,1,0,0,1,.45-.12.68.68,0,0,1,.69.67.86.86,0,0,1-.38.66,3.08,3.08,0,0,1-1,.52A4.08,4.08,0,0,1,65.19,32.84Z"/><path class="cls-3" d="M25.18,38.27a1.47,1.47,0,0,1-1.47-1.47V23.56H4.59V36.8a1.47,1.47,0,1,1-2.94,0V22.09a1.47,1.47,0,0,1,1.47-1.47H25.18a1.47,1.47,0,0,1,1.47,1.47V36.8A1.47,1.47,0,0,1,25.18,38.27Z"/><path class="cls-4" d="M25.18,19.89a1.45,1.45,0,0,1-.69-.18L14.15,14.2,3.82,19.71a1.47,1.47,0,0,1-2.17-1.3V3.71a1.47,1.47,0,0,1,2.94,0V16l8.87-4.73a1.49,1.49,0,0,1,1.39,0L23.71,16V3.71a1.47,1.47,0,0,1,2.94,0v14.7a1.47,1.47,0,0,1-1.47,1.48Z"/><g class="cls-5"><rect class="cls-6" x="11.95" y="36.74" width="4.41" height="0.06"/><rect class="cls-6" x="11.95" y="36.67" width="4.41" height="0.06"/><rect class="cls-6" x="11.95" y="36.61" width="4.41" height="0.06"/><rect class="cls-6" x="11.95" y="36.55" width="4.41" height="0.06"/><rect class="cls-6" x="11.95" y="36.49" width="4.41" height="0.06"/><rect class="cls-6" x="11.95" y="36.43" width="4.41" height="0.06"/><rect class="cls-7" x="11.95" y="36.36" width="4.41" height="0.06"/><rect class="cls-8" x="11.95" y="36.3" width="4.41" height="0.06"/><rect class="cls-8" x="11.95" y="36.24" width="4.41" height="0.06"/><rect class="cls-8" x="11.95" y="36.18" width="4.41" height="0.06"/><rect class="cls-8" x="11.95" y="36.12" width="4.41" height="0.06"/><rect class="cls-9" x="11.95" y="36.06" width="4.41" height="0.06"/><rect class="cls-10" x="11.95" y="35.99" width="4.41" height="0.06"/><rect class="cls-11" x="11.95" y="35.93" width="4.41" height="0.06"/><rect class="cls-12" x="11.95" y="35.87" width="4.41" height="0.06"/><rect class="cls-12" x="11.95" y="35.81" width="4.41" height="0.06"/><rect class="cls-13" x="11.95" y="35.75" width="4.41" height="0.06"/><rect class="cls-14" x="11.95" y="35.68" width="4.41" height="0.06"/><rect class="cls-14" x="11.95" y="35.62" width="4.41" height="0.06"/><rect class="cls-15" x="11.95" y="35.56" width="4.41" height="0.06"/><rect class="cls-16" x="11.95" y="35.5" width="4.41" height="0.06"/><rect class="cls-16" x="11.95" y="35.44" width="4.41" height="0.06"/><rect class="cls-17" x="11.95" y="35.38" width="4.41" height="0.06"/><rect class="cls-17" x="11.95" y="35.31" width="4.41" height="0.06"/><rect class="cls-18" x="11.95" y="35.25" width="4.41" height="0.06"/><rect class="cls-19" x="11.95" y="35.19" width="4.41" height="0.06"/><rect class="cls-20" x="11.95" y="35.13" width="4.41" height="0.06"/><rect class="cls-21" x="11.95" y="35.07" width="4.41" height="0.06"/><rect class="cls-21" x="11.95" y="35" width="4.41" height="0.06"/><rect class="cls-22" x="11.95" y="34.94" width="4.41" height="0.06"/><rect class="cls-23" x="11.95" y="34.88" width="4.41" height="0.06"/><rect class="cls-24" x="11.95" y="34.82" width="4.41" height="0.06"/><rect class="cls-25" x="11.95" y="34.76" width="4.41" height="0.06"/><rect class="cls-25" x="11.95" y="34.7" width="4.41" height="0.06"/><rect class="cls-26" x="11.95" y="34.63" width="4.41" height="0.06"/><rect class="cls-27" x="11.95" y="34.57" width="4.41" height="0.06"/><rect class="cls-28" x="11.95" y="34.51" width="4.41" height="0.06"/><rect class="cls-29" x="11.95" y="34.45" width="4.41" height="0.06"/><rect class="cls-30" x="11.95" y="34.39" width="4.41" height="0.06"/><rect class="cls-31" x="11.95" y="34.33" width="4.41" height="0.06"/><rect class="cls-32" x="11.95" y="34.26" width="4.41" height="0.06"/><rect class="cls-33" x="11.95" y="34.2" width="4.41" height="0.06"/><rect class="cls-34" x="11.95" y="34.14" width="4.41" height="0.06"/><rect class="cls-35" x="11.95" y="34.08" width="4.41" height="0.06"/><rect class="cls-36" x="11.95" y="34.02" width="4.41" height="0.06"/><rect class="cls-37" x="11.95" y="33.95" width="4.41" height="0.06"/><rect class="cls-38" x="11.95" y="33.89" width="4.41" height="0.06"/><rect class="cls-39" x="11.95" y="33.83" width="4.41" height="0.06"/><rect class="cls-40" x="11.95" y="33.77" width="4.41" height="0.06"/><rect class="cls-41" x="11.95" y="33.71" width="4.41" height="0.06"/><rect class="cls-42" x="11.95" y="33.65" width="4.41" height="0.06"/><rect class="cls-43" x="11.95" y="33.58" width="4.41" height="0.06"/><rect class="cls-44" x="11.95" y="33.52" width="4.41" height="0.06"/><rect class="cls-45" x="11.95" y="33.46" width="4.41" height="0.06"/><rect class="cls-46" x="11.95" y="33.4" width="4.41" height="0.06"/><rect class="cls-47" x="11.95" y="33.34" width="4.41" height="0.06"/><rect class="cls-48" x="11.95" y="33.27" width="4.41" height="0.06"/><rect class="cls-49" x="11.95" y="33.21" width="4.41" height="0.06"/><rect class="cls-50" x="11.95" y="33.15" width="4.41" height="0.06"/><rect class="cls-51" x="11.95" y="33.09" width="4.41" height="0.06"/><rect class="cls-52" x="11.95" y="33.03" width="4.41" height="0.06"/><rect class="cls-53" x="11.95" y="32.97" width="4.41" height="0.06"/><rect class="cls-54" x="11.95" y="32.9" width="4.41" height="0.06"/><rect class="cls-55" x="11.95" y="32.84" width="4.41" height="0.06"/><rect class="cls-56" x="11.95" y="32.78" width="4.41" height="0.06"/><rect class="cls-57" x="11.95" y="32.72" width="4.41" height="0.06"/><rect class="cls-58" x="11.95" y="32.66" width="4.41" height="0.06"/><rect class="cls-59" x="11.95" y="32.6" width="4.41" height="0.06"/><rect class="cls-60" x="11.95" y="32.53" width="4.41" height="0.06"/><rect class="cls-61" x="11.95" y="32.47" width="4.41" height="0.06"/><rect class="cls-62" x="11.95" y="32.41" width="4.41" height="0.06"/><rect class="cls-63" x="11.95" y="32.35" width="4.41" height="0.06"/><rect class="cls-64" x="11.95" y="32.29" width="4.41" height="0.06"/><rect class="cls-65" x="11.95" y="32.22" width="4.41" height="0.06"/><rect class="cls-66" x="11.95" y="32.16" width="4.41" height="0.06"/><rect class="cls-67" x="11.95" y="32.1" width="4.41" height="0.06"/><rect class="cls-68" x="11.95" y="32.04" width="4.41" height="0.06"/><rect class="cls-69" x="11.95" y="31.98" width="4.41" height="0.06"/><rect class="cls-70" x="11.95" y="31.92" width="4.41" height="0.06"/><rect class="cls-71" x="11.95" y="31.85" width="4.41" height="0.06"/><rect class="cls-72" x="11.95" y="31.79" width="4.41" height="0.06"/><rect class="cls-73" x="11.95" y="31.73" width="4.41" height="0.06"/><rect class="cls-74" x="11.95" y="31.67" width="4.41" height="0.06"/><rect class="cls-75" x="11.95" y="31.61" width="4.41" height="0.06"/><rect class="cls-76" x="11.95" y="31.54" width="4.41" height="0.06"/><rect class="cls-77" x="11.95" y="31.48" width="4.41" height="0.06"/><rect class="cls-78" x="11.95" y="31.42" width="4.41" height="0.06"/><rect class="cls-79" x="11.95" y="31.36" width="4.41" height="0.06"/><rect class="cls-80" x="11.95" y="31.3" width="4.41" height="0.06"/><rect class="cls-81" x="11.95" y="31.24" width="4.41" height="0.06"/><rect class="cls-82" x="11.95" y="31.17" width="4.41" height="0.06"/><rect class="cls-83" x="11.95" y="31.11" width="4.41" height="0.06"/><rect class="cls-84" x="11.95" y="31.05" width="4.41" height="0.06"/><rect class="cls-85" x="11.95" y="30.99" width="4.41" height="0.06"/><rect class="cls-86" x="11.95" y="30.93" width="4.41" height="0.06"/><rect class="cls-87" x="11.95" y="30.87" width="4.41" height="0.06"/><rect class="cls-88" x="11.95" y="30.8" width="4.41" height="0.06"/><rect class="cls-89" x="11.95" y="30.74" width="4.41" height="0.06"/><rect class="cls-90" x="11.95" y="30.68" width="4.41" height="0.06"/><rect class="cls-91" x="11.95" y="30.62" width="4.41" height="0.06"/><rect class="cls-92" x="11.95" y="30.56" width="4.41" height="0.06"/><rect class="cls-93" x="11.95" y="30.49" width="4.41" height="0.06"/><rect class="cls-94" x="11.95" y="30.43" width="4.41" height="0.06"/><rect class="cls-95" x="11.95" y="30.37" width="4.41" height="0.06"/><rect class="cls-96" x="11.95" y="30.31" width="4.41" height="0.06"/><rect class="cls-97" x="11.95" y="30.25" width="4.41" height="0.06"/><rect class="cls-98" x="11.95" y="30.19" width="4.41" height="0.06"/><rect class="cls-99" x="11.95" y="30.12" width="4.41" height="0.06"/><rect class="cls-100" x="11.95" y="30.06" width="4.41" height="0.06"/><rect class="cls-101" x="11.95" y="30" width="4.41" height="0.06"/><rect class="cls-102" x="11.95" y="29.94" width="4.41" height="0.06"/><rect class="cls-103" x="11.95" y="29.88" width="4.41" height="0.06"/><rect class="cls-104" x="11.95" y="29.81" width="4.41" height="0.06"/><rect class="cls-105" x="11.95" y="29.75" width="4.41" height="0.06"/><rect class="cls-106" x="11.95" y="29.69" width="4.41" height="0.06"/><rect class="cls-107" x="11.95" y="29.63" width="4.41" height="0.06"/><rect class="cls-108" x="11.95" y="29.57" width="4.41" height="0.06"/><rect class="cls-109" x="11.95" y="29.51" width="4.41" height="0.06"/><rect class="cls-2" x="11.95" y="29.44" width="4.41" height="0.06"/></g></svg>