<?xml version="1.0" encoding="utf-8"?>
<!-- Generator: Adobe Illustrator 24.0.2, SVG Export Plug-In . SVG Version: 6.00 Build 0)  -->
<svg version="1.1" id="Capa_1" xmlns="http://www.w3.org/2000/svg" xmlns:xlink="http://www.w3.org/1999/xlink" x="0px" y="0px"
	 viewBox="0 0 30 30" style="enable-background:new 0 0 30 30;" xml:space="preserve">
<style type="text/css">
	.st0{fill:#E4215B;}
	.st1{fill:#F3F3F3;}
	.st2{fill:#FF9800;}
</style>
<path class="st0" d="M23.8,3.7c-4.9-4.9-12.7-4.9-17.5,0c-4.9,4.9-4.9,12.7,0,17.5L15,30l8.7-8.7C28.6,16.4,28.6,8.5,23.8,3.7z"/>
<path class="st1" d="M15,4.2c-4.6,0-8.3,3.7-8.3,8.3c0,4.6,3.7,8.3,8.3,8.3c4.6,0,8.3-3.7,8.3-8.3S19.6,4.2,15,4.2z"/>
<polygon class="st2" points="15,6.6 10.3,11.2 10.3,17.9 19.7,17.9 19.7,11.2 "/>
<g>
	<rect x="13.4" y="14.1" width="3.2" height="3.7"/>
	<path d="M20.9,11.5l-5.4-5.4c-0.2-0.2-0.7-0.2-1,0l-5.4,5.4c-0.2,0.2-0.2,0.7,0,1c0.2,0.2,0.7,0.2,1,0L15,7.5l4.9,4.9
		c0.1,0.1,0.3,0.2,0.5,0.2s0.4-0.1,0.5-0.2C21.1,12.1,21.1,11.7,20.9,11.5z"/>
</g>
</svg>
