<svg id="Capa_1" data-name="Capa 1" xmlns="http://www.w3.org/2000/svg" viewBox="0 0 512 512"><defs><style>.cls-1{fill:#e4215b;}.cls-2{fill:#bf1c4d;}.cls-3{fill:#d8aa8b;}.cls-4{fill:#c6865c;}.cls-5{fill:#ffcbbe;}.cls-6{fill:#eaac9d;}.cls-7{fill:#df9380;}.cls-8{fill:#78d090;}.cls-9{fill:#6ec186;}</style></defs><title>user-icon-pink</title><path class="cls-1" d="M431.42,449.8H36.2a5,5,0,0,1-5-5V426.39a150,150,0,0,1,150-150H286.42a150,150,0,0,1,150,150V444.8a5,5,0,0,1-5,5Z"/><path class="cls-2" d="M286.2,276.39H209.31A150.22,150.22,0,0,1,359.53,426.6v18.19a5,5,0,0,1-5,5h76.89a5,5,0,0,0,5-5V426.6A150.22,150.22,0,0,0,286.2,276.39Z"/><path class="cls-3" d="M138.7,68.16V120.6H328.92V68.16A60.64,60.64,0,0,0,268.27,7.51H199.34A60.64,60.64,0,0,0,138.7,68.16Z"/><path class="cls-4" d="M268.28,7.51H220.13a60.64,60.64,0,0,1,60.65,60.65V120.6h48.14V68.16A60.64,60.64,0,0,0,268.28,7.51Z"/><path class="cls-5" d="M322.86,143.15c-9.75,20.69-10.59,48.21,1.65,54s32.91-12.41,42.66-33.11,3.45-33-8.79-38.82-25.77-2.74-35.52,18Z"/><path class="cls-6" d="M245.08,337.37H222.53a55.46,55.46,0,0,1-55.45-55.45V178.29H300.54V281.92a55.46,55.46,0,0,1-55.46,55.45Z"/><path class="cls-7" d="M260.56,178.29V281.84a55.55,55.55,0,0,1-46.74,54.83,56.66,56.66,0,0,0,8.79.7H245a55.54,55.54,0,0,0,55.54-55.53V178.29Z"/><path class="cls-5" d="M311.65,91.71H156A17.27,17.27,0,0,0,138.7,109v61.5a100.51,100.51,0,0,0,44.44,83.42l27.64,18.58a41.29,41.29,0,0,0,46.06,0l27.64-18.58a100.51,100.51,0,0,0,44.44-83.42V109a17.27,17.27,0,0,0-17.27-17.27Z"/><path class="cls-6" d="M300.65,91.71v78.77A100.49,100.49,0,0,1,256.2,253.9l-27.64,18.58a41.32,41.32,0,0,1-8.89,4.51,41.3,41.3,0,0,0,37.17-4.51l27.64-18.58a100.51,100.51,0,0,0,44.44-83.42V109a17.27,17.27,0,0,0-17.27-17.27Z"/><path class="cls-6" d="M322.86,143.15c-9.75,20.69-10.59,48.21,1.65,54s32.91-12.41,42.66-33.11,3.45-33-8.79-38.82-25.77-2.74-35.52,18Z"/><path class="cls-5" d="M144.76,143.15c9.75,20.69,10.59,48.21-1.65,54S110.2,184.71,100.45,164s-3.45-33,8.79-38.82,25.77-2.74,35.52,18Z"/><circle class="cls-8" cx="403.84" cy="427.53" r="76.96"/><path class="cls-9" d="M443.2,361.39A77,77,0,0,1,337.7,466.88,77,77,0,1,0,443.19,361.39Z"/><path d="M291.26,442.29H38.71V426.6a141.93,141.93,0,0,1,24.73-80.31A7.51,7.51,0,1,0,51,337.83,156.86,156.86,0,0,0,23.69,426.6v18.19a12.53,12.53,0,0,0,12.52,12.52H291.26a7.51,7.51,0,0,0,0-15Z"/><path d="M188.78,139.58a11.5,11.5,0,1,0,11.5,11.5A11.5,11.5,0,0,0,188.78,139.58Z"/><path d="M278.48,162.57A11.5,11.5,0,1,0,267,151.08,11.49,11.49,0,0,0,278.48,162.57Z"/><path d="M254.38,201a25,25,0,0,1-41.14,0,7.51,7.51,0,1,0-12.36,8.53,40,40,0,0,0,65.86,0A7.51,7.51,0,1,0,254.38,201Z"/><path d="M471.72,377.31l14.49-16.84a7.51,7.51,0,0,0-11.39-9.8L461.63,366a84.27,84.27,0,0,0-40.54-21.17,158.35,158.35,0,0,0-113-74.45V243.47a107.86,107.86,0,0,0,22.5-37.8c16.14-.78,34.41-19.34,43.41-38.46,10.38-22,5.75-40.27-12.38-48.81-8.68-4.09-17.38-4.3-25.15-.88V68.16A68.23,68.23,0,0,0,268.28,0H199.34a68.23,68.23,0,0,0-68.15,68.16v49.37c-7.77-3.43-16.47-3.22-25.15.87-18.13,8.54-22.76,26.78-12.38,48.81,9,19.18,27.27,37.69,43.41,38.46a107.86,107.86,0,0,0,22.5,37.8v26.91a156.36,156.36,0,0,0-84.73,39.95A7.51,7.51,0,0,0,85,321.4a141.3,141.3,0,0,1,74.69-35.86,63.13,63.13,0,0,0,62.93,59.34H245a63.11,63.11,0,0,0,62.92-59.32,143.24,143.24,0,0,1,94,57.54,84.52,84.52,0,1,0,69.8,34.21ZM355.18,132c3.8,1.79,15.36,7.23,5.19,28.82-6.5,13.8-17.53,24.92-25.61,28.59a108,108,0,0,0,1.67-18.92V135.77c5.53-6,11.49-7.2,18.75-3.78ZM199.34,15h68.94a53.19,53.19,0,0,1,53.13,53.14v18a24.65,24.65,0,0,0-9.76-2H293a7.51,7.51,0,1,0,0,15h18.65a9.77,9.77,0,0,1,9.76,9.76v61.5a92.86,92.86,0,0,1-41.12,77.19l-27.64,18.58a33.65,33.65,0,0,1-37.68,0l-27.64-18.58a92.86,92.86,0,0,1-41.12-77.19V109A9.77,9.77,0,0,1,156,99.22H257.19a7.51,7.51,0,0,0,0-15H156a24.58,24.58,0,0,0-9.76,2v-18A53.19,53.19,0,0,1,199.34,15Zm-92.1,145.79c-10.16-21.59,1.4-27,5.2-28.82,7.26-3.42,13.22-2.22,18.74,3.78v34.71a108.19,108.19,0,0,0,1.68,18.94c-8.07-3.65-19.09-14.76-25.62-28.61ZM245,329.86H222.61a48.08,48.08,0,0,1-48-48V257c2.13,1.76,29,19.64,32,21.68a48.59,48.59,0,0,0,54.44,0c3.08-2.13,29.76-19.84,32-21.68v24.81a48.07,48.07,0,0,1-48,48ZM403.84,497a69.46,69.46,0,1,1,48-119.59l-50.57,58.77-28.5-26.82a7.51,7.51,0,0,0-10.3,10.94l34.23,32.2a7.5,7.5,0,0,0,5.14,2h.4a7.56,7.56,0,0,0,5.3-2.6l54.09-62.86A69.41,69.41,0,0,1,403.84,497Z"/></svg>